{"title":"Star Wars Episode V 1980 MULTI HQ 1080p Blu-Ray x264 AC3 5.1 MSu","uid":15890478,"size":16312339842,"categoryP":"video","categoryS":"hd___movies","magnet":"?xt=urn:btih:a963af8bd7bac43d37ba1b1f0d77d8c3f12a1b1a&amp;dn=Star+Wars+Episode+V+1980+MULTI+HQ+1080p+Blu-Ray+x264+AC3+5.1+MSu&amp;tr=udp%3A%2F%2Ftracker.leechers-paradise.org%3A6969&amp;tr=udp%3A%2F%2Fzer0day.ch%3A1337&amp;tr=udp%3A%2F%2Fopen.demonii.com%3A1337&amp;tr=udp%3A%2F%2Ftracker.coppersurfer.tk%3A6969&amp;tr=udp%3A%2F%2Fexodus.desync.com%3A6969","seeders":33,"leechers":54,"uploader":"SaM","files":3,"time":1474727554,"description":"HQ 1080p Blu-ray Rip x264\r\n\r\nEnglish DTS-HD MA 6.1 Audio\r\nFrench DTS 5.1 Audio\r\nSpanish DDS 5.1 Audio\r\nPortuguese DDS 5.1 Audio\r\nHindi DDS 2.0 Audio\r\n\r\nEnglish|French|Spanish|Dutch|Portuguese|Finnish|Swedish | Norwegian| Danish| | Subtitles\r\n+\r\nSDH subs\r\n \nhttps://extraimago.com/image/w9mH \nhttps://extraimago.com/image/w9mF \nhttps://extraimago.com/image/w9mD \nhttps://extraimago.com/image/w9m5 \nhttps://extraimago.com/image/w9mg \nhttps://extraimago.com/image/w9mX \nhttps://extraimago.com/image/w9mP \nhttps://extraimago.com/image/w9mG \nhttps://extraimago.com/image/w9mr \nhttps://extraimago.com/image/w9mp \nhttps://extraimago.com/image/w9mY \nhttps://extraimago.com/image/w9mC \nhttps://extraimago.com/image/w9mB \nhttps://extraimago.com/image/w9m4 \nhttps://extraimago.com/image/w9me \nhttps://extraimago.com/image/w9mZ \nhttps://extraimago.com/image/w9mK \nhttps://extraimago.com/image/w9iS \nhttps://extraimago.com/image/w9mt \nhttps://extraimago.com/image/w9mo \nhttps://extraimago.com/image/w9mk\r\n\r\nSpecs:\r\nSource: French Digitally Remastered 10 Disc Set @ DDR\r\n\r\nFormat : Matroska\r\nFile size : 15.0 GiB\r\nDuration : 2 h 7 min\r\nOverall bit rate : 16.9 Mb/s\r\nEncoded date : UTC 2016-09-24 02:16:06\r\n\r\nVideo\r\nID : 1\r\nFormat : AVC\r\nFormat/Info : Advanced Video Codec\r\nFormat profile :   \r\nFormat settings, CABAC : Yes\r\nFormat settings, ReFrames : 5 frames\r\nCodec ID : V_MPEG4/ISO/AVC\r\nDuration : 2 h 7 min\r\nBit rate : 10.0 Mb/s\r\nWidth : 1 920 pixels\r\nHeight : 816 pixels\r\nDisplay aspect ratio : 2.35:1\r\nFrame rate mode : Constant\r\nFrame rate : 23.976 (24000/1001) FPS\r\nColor space : YUV\r\nChroma subsampling : 4:2:0\r\nBit depth : 8 bits\r\nScan type : Progressive\r\nBits/(Pixel*Frame) : 0.266\r\nStream size : 8.90 GiB (59%)\r\nDefault : Yes\r\nForced : No\r\nColor range : Limited\r\nColor primaries : BT.709\r\nTransfer characteristics : BT.709\r\nMatrix coefficients : BT.709\r\n\r\nAudio #1\r\nID : 2\r\nFormat : DTS\r\nFormat/Info : Digital Theater Systems\r\nFormat profile : MA / ES Discrete / Core\r\nMode : 16\r\nFormat settings, Endianness : Big\r\nCodec ID : A_DTS\r\nDuration : 2 h 7 min\r\nBit rate mode : Variable / Constant / Constant\r\nBit rate : 4 564 kb/s / 1 509 kb/s / 1 509 kb/s\r\nChannel(s) : 7 channels / 7 channels / 6 channels\r\nChannel positions : Front: L C R, Side: L R, Back: C, LFE / Front: L C R, Side: L R, Back: C, LFE / Front: L C R, Side: L R, LFE\r\nSampling rate : 48.0 kHz\r\nFrame rate : 93.750 FPS (512 spf)\r\nBit depth : 24 bits\r\nCompression mode : Lossless / Lossy / Lossy\r\nStream size : 4.06 GiB (27%)\r\nLanguage : English\r\nDefault : Yes\r\nForced : No","torrent":{"xt":"urn:btih:a963af8bd7bac43d37ba1b1f0d77d8c3f12a1b1a","amp;dn":"Star+Wars+Episode+V+1980+MULTI+HQ+1080p+Blu-Ray+x264+AC3+5.1+MSu","amp;tr":["udp%3A%2F%2Ftracker.leechers-paradise.org%3A6969","udp%3A%2F%2Fzer0day.ch%3A1337","udp%3A%2F%2Fopen.demonii.com%3A1337","udp%3A%2F%2Ftracker.coppersurfer.tk%3A6969","udp%3A%2F%2Fexodus.desync.com%3A6969"],"infoHash":"a963af8bd7bac43d37ba1b1f0d77d8c3f12a1b1a","infoHashBuffer":{"type":"Buffer","data":[169,99,175,139,215,186,196,61,55,186,27,31,13,119,216,195,241,42,27,26]},"announce":[],"urlList":[]}}